<?xml version="1.0" encoding="iso-8859-1"?>
<!-- Uploaded to: SVG Repo, www.svgrepo.com, Generator: SVG Repo Mixer Tools -->
<svg height="32px" width="32px" version="1.1" id="Layer_1" xmlns="http://www.w3.org/2000/svg" xmlns:xlink="http://www.w3.org/1999/xlink" 
	 viewBox="0 0 511.996 511.996" xml:space="preserve">
<g>
	<g>
		<path style="fill:#535353;" d="M511.996,392.824c0,24.373-19.765,44.138-44.138,44.138c-24.373,0-44.138-19.765-44.138-44.138
			c0-24.373,19.765-44.138,44.138-44.138C492.232,348.686,511.996,368.451,511.996,392.824"/>
		<path style="fill:#535353;" d="M211.859,392.824c0,29.255-23.711,52.966-52.966,52.966s-52.966-23.711-52.966-52.966
			c0-29.255,23.711-52.966,52.966-52.966S211.859,363.569,211.859,392.824"/>
	</g>
	<path style="fill:#81C784;" d="M143.678,342.103l-16.561-55.208H65.792c-7.406,0-13.718,5.35-14.936,12.65L38.25,375.197
		c-1.545,9.225,5.57,17.629,14.927,17.629h52.754C105.931,368.868,121.847,348.644,143.678,342.103"/>
	<path style="fill:#DF5548;" d="M105.56,216.17l38.118,125.934c4.82-1.448,9.922-2.242,15.219-2.242
		c29.246,0,52.966,23.711,52.966,52.966h211.862c0-24.382,19.756-44.138,44.138-44.138c9.984,0,19.085,3.434,26.483,9.022v-35.505
		l-20.542-9.137c-93.537-41.569-218.606-75.961-332.562-92.31l-35.31-119.243l-10.284-35.31H17.655C7.901,66.207,0,74.108,0,83.862
		c0,9.746,7.901,17.655,17.655,17.655h52.966L127.1,286.844"/>
	<path style="fill:#A1352A;" d="M439.013,298.524c-33.704-13.321-70.391-25.671-108.438-36.67
		c-2.489,6.409-3.955,13.33-3.955,20.621c0,31.691,25.688,57.379,57.379,57.379C410.102,339.855,432.065,322.385,439.013,298.524"/>
	<g>
		<path style="fill:#A4A4A4;" d="M167.721,392.824c0,4.873-3.955,8.828-8.828,8.828s-8.828-3.955-8.828-8.828
			c0-4.873,3.955-8.828,8.828-8.828S167.721,387.951,167.721,392.824"/>
		<path style="fill:#A4A4A4;" d="M476.686,393.122c0,4.873-3.955,8.828-8.828,8.828c-4.873,0-8.828-3.955-8.828-8.828
			c0-4.873,3.955-8.828,8.828-8.828C472.731,384.294,476.686,388.249,476.686,393.122"/>
	</g>
	<g>
		<path style="fill:#4CAF50;" d="M79.445,313.376H48.548l-2.895,17.373c0.486,0.079,0.918,0.282,1.421,0.282h32.371
			c4.882,0,8.828-3.946,8.828-8.828S84.326,313.376,79.445,313.376"/>
		<path style="fill:#4CAF50;" d="M79.445,348.686H42.66l-2.895,17.364c0.486,0.088,0.927,0.291,1.43,0.291h38.25
			c4.882,0,8.828-3.946,8.828-8.828C88.272,352.632,84.326,348.686,79.445,348.686"/>
	</g>
	<g>
		<path style="fill:#A1352A;" d="M119.327,261.654l4.97,16.41h0.124l-5.014-16.463C119.38,261.619,119.353,261.636,119.327,261.654"
			/>
		<path style="fill:#A1352A;" d="M211.859,260.41h-88.276c-1.545,0-2.913,0.494-4.175,1.192l5.014,16.463h87.437
			c4.882,0,8.828-3.946,8.828-8.828S216.74,260.41,211.859,260.41"/>
		<path style="fill:#A1352A;" d="M282.479,331.031H141.238c-0.309,0-0.565,0.141-0.856,0.177l3.293,10.893
			c4.829-1.439,9.931-2.242,15.219-2.242c10.823,0,20.868,3.257,29.255,8.828h94.332c4.882,0,8.828-3.946,8.828-8.828
			C291.307,334.977,287.361,331.031,282.479,331.031"/>
		<path style="fill:#A1352A;" d="M247.169,295.721h-117.53l5.341,17.655h112.19c4.882,0,8.828-3.946,8.828-8.828
			S252.051,295.721,247.169,295.721"/>
	</g>
</g>
</svg>