<?xml version="1.0" encoding="iso-8859-1"?>
<!-- Uploaded to: SVG Repo, www.svgrepo.com, Generator: SVG Repo Mixer Tools -->
<svg fill="#001d4a" height="80px" width="80px" version="1.1" id="Layer_1" xmlns="http://www.w3.org/2000/svg" xmlns:xlink="http://www.w3.org/1999/xlink" 
	 viewBox="0 0 512 512" xml:space="preserve">
<g>
	<g>
		<path d="M417.518,496.165H115.245c15.357-12.693,25.159-31.879,25.159-53.311c0-0.001,0-0.002,0-0.002c0-0.001,0-0.002,0-0.002
			l-0.091-213.245c-0.002-4.372-3.546-7.914-7.918-7.914c-0.001,0-0.002,0-0.003,0c-4.374,0.002-7.916,3.548-7.914,7.921
			l0.072,169.232c-12.693-15.342-31.87-25.135-53.292-25.135c-21.432,0-40.618,9.802-53.311,25.159V66.516
			c0.07-0.343,0.118-0.695,0.143-1.054c1.899-27.828,25.253-49.627,53.169-49.627c27.828,0,51.126,21.664,53.151,49.368
			l0.056,130.626c0.002,4.372,3.546,7.914,7.918,7.914c0.001,0,0.002,0,0.003,0c4.374-0.002,7.917-3.548,7.914-7.921l-0.05-114.537
			h57.688c4.374,0,7.917-3.545,7.917-7.918s-3.544-7.918-7.917-7.918h-57.695v-0.531c0-0.178-0.006-0.357-0.019-0.535
			C137.762,28.281,107.468,0,71.258,0C35.608,0,5.694,27.408,2.426,62.709c-0.205,0.702-0.315,1.445-0.315,2.215v377.93
			C2.111,480.981,33.13,512,71.258,512c0.471,0,346.26,0,346.26,0c4.374,0,7.918-3.545,7.918-7.917
			C425.435,499.71,421.891,496.165,417.518,496.165z M71.258,496.165c-29.396,0-53.311-23.915-53.311-53.311
			c0-29.396,23.915-53.311,53.311-53.311s53.311,23.915,53.311,53.311C124.569,472.25,100.654,496.165,71.258,496.165z"/>
	</g>
</g>
<g>
	<g>
		<path d="M501.971,65.452H240.165c-4.374,0-7.918,3.545-7.918,7.918s3.544,7.918,7.918,7.918h253.889v414.878h-34.309
			c-4.374,0-7.917,3.545-7.917,7.918c0,4.373,3.544,7.917,7.917,7.917h42.227c4.374,0,7.918-3.545,7.918-7.917V73.369
			C509.889,68.997,506.345,65.452,501.971,65.452z"/>
	</g>
</g>
<g>
	<g>
		<path d="M71.258,405.377c-20.665,0-37.476,16.812-37.476,37.476c0,20.665,16.812,37.476,37.476,37.476
			s37.476-16.812,37.476-37.476C108.734,422.189,91.922,405.377,71.258,405.377z M71.258,464.495
			c-11.933,0-21.641-9.708-21.641-21.641s9.708-21.641,21.641-21.641s21.641,9.708,21.641,21.641S83.191,464.495,71.258,464.495z"/>
	</g>
</g>
<g>
	<g>
		<path d="M455.521,415.935H229.608v-0.001c-0.949,0-1.891,0.171-2.781,0.505l-50.672,19.002c-3.299,1.237-5.384,4.507-5.114,8.02
			c0.269,3.513,2.829,6.426,6.279,7.145l50.672,10.557c0.531,0.111,1.073,0.167,1.614,0.167h225.913
			c4.374,0,7.918-3.545,7.918-7.918v-29.559C463.438,419.48,459.894,415.935,455.521,415.935z M221.691,443.673l-14.395-2.999
			l14.395-5.398V443.673z M415.934,445.493H237.526v-13.724h178.408V445.493z M447.604,445.493h-15.835v-13.724h15.835V445.493z"/>
	</g>
</g>
<g>
	<g>
		<path d="M435.706,223.931l-112.958-109.79c-3.072-2.988-7.965-2.988-11.037,0l-112.957,109.79
			c-1.534,1.491-2.398,3.539-2.398,5.677v154.128c0,4.373,3.544,7.918,7.918,7.918h225.913c4.374,0,7.918-3.545,7.918-7.918V229.608
			C438.104,227.469,437.24,225.421,435.706,223.931z M317.229,130.86l93.451,90.831H223.778L317.229,130.86z M342.037,375.819
			h-49.616v-74.953h49.616V375.819z M422.268,375.819h-64.396v-82.87c0-4.373-3.544-7.918-7.918-7.918h-65.452
			c-4.374,0-7.918,3.545-7.918,7.918v82.87H212.19V237.526h210.078V375.819z"/>
	</g>
</g>
<g>
	<g>
		<path d="M317.229,160.462c-14.844,0-26.92,12.076-26.92,26.92c0,14.844,12.076,26.92,26.92,26.92
			c14.844,0,26.92-12.076,26.92-26.92C344.148,172.538,332.073,160.462,317.229,160.462z M317.229,198.466
			c-6.112,0-11.085-4.972-11.085-11.085c0-6.112,4.972-11.085,11.085-11.085c6.112,0,11.085,4.972,11.085,11.085
			C328.313,193.494,323.341,198.466,317.229,198.466z"/>
	</g>
</g>
</svg>