<?xml version="1.0" encoding="iso-8859-1"?>
<!-- Uploaded to: SVG Repo, www.svgrepo.com, Generator: SVG Repo Mixer Tools -->
<svg fill="#001d4a" height="80px" width="80px" version="1.1" id="Layer_1" xmlns="http://www.w3.org/2000/svg" xmlns:xlink="http://www.w3.org/1999/xlink" 
	 viewBox="0 0 508.1 508.1" xml:space="preserve">
<g>
	<g>
		<path d="M469.6,347.397l-66.6-18.3c5.2-43.2-21.2-85.5-64.2-97.6c-65.2-18.4-98.9,32.5-106.8,50.7l-59.9-16.4
			c-11-3-22.2-4.6-33.3-4.8l-43.4-242.7c-1.1-6.1-6.1-10.8-12.3-11.5l-57.2-6.6c-7.8-0.9-14.7,4.7-15.6,12.4
			c-0.9,7.7,4.7,14.7,12.4,15.6l46.8,5.4l41.1,229.8c-20.3,4-39.6,12.6-56.6,25.5c-34.3,26.2-54,66.1-54,109.4v42.2
			c0,7.8,6.3,14.1,14.1,14.1h33.6c6.5,30.5,33.4,53.4,65.7,53.4c32.3,0,59.2-22.9,65.7-53.4H324c6.5,30.5,33.4,53.4,65.7,53.4
			c32.2,0,59.2-22.9,65.7-53.4c0,0,52.7-3.5,52.7-48.7C508,368.497,492.2,353.597,469.6,347.397z M330.9,258.697
			c27.8,8.8,45.9,34.7,44.4,62.9l-115.9-31.8C265,278.997,293.1,246.697,330.9,258.697z M113.4,479.897c-21.5,0-38.9-17.6-38.9-39.3
			c0-21.7,17.5-39.3,38.9-39.3c21.5,0,38.9,17.6,38.9,39.3C152.3,462.297,134.9,479.897,113.4,479.897z M389.6,479.897
			c-21.5,0-38.9-17.6-38.9-39.3c0-21.7,17.5-39.3,38.9-39.3c21.5,0,38.9,17.6,38.9,39.3C428.5,462.297,411.1,479.897,389.6,479.897z
			 M455.3,426.397c-6.5-30.5-33.4-53.4-65.7-53.4c-32.2,0-59.2,22.9-65.7,53.4H179.1c-6.5-30.5-33.4-53.4-65.7-53.4
			s-59.2,22.9-65.7,53.4H28.2v-28.1c0-34.5,15.6-66.1,42.9-86.9c26.9-20.5,61-27.2,93.6-18.3l297.5,81.5
			c10.4,2.8,17.6,8.3,17.6,31.3C479.8,427.497,455.3,426.397,455.3,426.397z"/>
	</g>
</g>
</svg>