<?xml version="1.0" encoding="iso-8859-1"?>
<!-- Uploaded to: SVG Repo, www.svgrepo.com, Generator: SVG Repo Mixer Tools -->
<svg fill="#001d4a" height="80px" width="80px" version="1.1" id="Layer_1" xmlns="http://www.w3.org/2000/svg" xmlns:xlink="http://www.w3.org/1999/xlink" 
	 viewBox="0 0 512 512" xml:space="preserve">
<g>
	<g>
		<path d="M379.374,419.47H274.506V185.06h37.012V0H200.482v185.06h37.012v234.41H132.627c-23.81,0-43.181,19.371-43.181,43.181V512
			h37.012v-49.349c0-3.401,2.767-6.169,6.169-6.169h30.843V512h37.012v-55.518h37.012V512h37.012v-55.518h37.012V512h37.012v-55.518
			h30.843c3.401,0,6.169,2.767,6.169,6.169V512h37.012v-49.349C422.554,438.841,403.183,419.47,379.374,419.47z M237.494,148.048
			V37.012h37.012v111.036H237.494z"/>
	</g>
</g>
</svg>