<?xml version="1.0" encoding="iso-8859-1"?>
<!-- Uploaded to: SVG Repo, www.svgrepo.com, Generator: SVG Repo Mixer Tools -->
<svg fill="#001d4a" height="80px" width="80px" version="1.1" id="Layer_1" xmlns="http://www.w3.org/2000/svg" xmlns:xlink="http://www.w3.org/1999/xlink" 
	 viewBox="0 0 496 496" xml:space="preserve">
<g>
	<g>
		<path d="M412,191.312l14.344,14.344l11.312-11.312L423.312,180L436,167.312l14.344,14.344l11.312-11.312L447.312,156
			l26.464-26.464C488.112,115.208,496,96.16,496,75.88C496,34.04,461.96,0,420.12,0c-20.264,0-39.32,7.896-53.656,22.224L340,48.688
			l-14.344-14.344l-11.312,11.312L328.688,60L316,72.688l-14.344-14.344l-11.312,11.312L304.688,84L248,140.688l-136-136L4.688,112
			l136,136L0,388.688V496h107.312L248,355.312l136,136L491.312,384l-136-136L412,191.312z M377.776,33.536
			C389.088,22.232,404.128,16,420.12,16C453.144,16,480,42.864,480,75.88c0,16-6.224,31.032-17.536,42.344L436,144.688L351.312,60
			L377.776,33.536z M340,71.312L424.688,156L412,168.688L327.312,84L340,71.312z M131.312,216l10.344-10.344l-11.312-11.312
			L120,204.688L91.312,176l26.344-26.344l-11.312-11.312L80,164.688L59.312,144l10.344-10.344l-11.312-11.312L48,132.688L27.312,112
			L112,27.312L236.688,152L152,236.688L131.312,216z M16,480v-68.688L84.688,480H16z M104,476.688L67.312,440l266.344-266.344
			l-11.312-11.312L56,428.688L19.312,392L316,95.312L352.688,132l-14.344,14.344l11.312,11.312L364,143.312L400.688,180L104,476.688
			z M468.688,384L384,468.688L363.312,448l26.344-26.344l-11.312-11.312L352,436.688L331.312,416l10.344-10.344l-11.312-11.312
			L320,404.688L291.312,376l26.344-26.344l-11.312-11.312L280,364.688L259.312,344L344,259.312L468.688,384z"/>
	</g>
</g>
</svg>