<?xml version="1.0" ?>

<!-- Uploaded to: SVG Repo, www.svgrepo.com, Generator: SVG Repo Mixer Tools -->
<svg width="80px" height="80px" viewBox="0 0 64 64" id="svg5" version="1.1" xml:space="preserve" xmlns="http://www.w3.org/2000/svg" xmlns:svg="http://www.w3.org/2000/svg">

<defs id="defs2"/>

<g id="layer1" transform="translate(0,-576)">

<path d="m 27.013672,580.73633 c -0.08702,-2e-4 -0.173686,0.011 -0.257813,0.0332 l -5.794921,1.55274 c -0.533332,0.14302 -0.849833,0.69122 -0.707032,1.22461 l 0.517578,1.93164 c 0.47949,1.78943 2.124224,2.97548 3.900391,2.96289 l 4.691406,17.51171 -0.964843,0.25782 c -0.534123,0.14216 -0.851657,0.69062 -0.708985,1.22461 l 0.519531,1.93359 -2.898437,0.77539 c -0.533332,0.14302 -0.849832,0.69122 -0.707031,1.22461 l 1.263672,4.7207 c -1.060346,0.15652 -2.081612,0.50958 -3.056641,0.97071 C 22.33067,613.66768 19.521257,611 16,611 12.380777,611.002 9.4747628,613.81023 9.1289062,617.34766 6.0022685,619.10916 4.0053908,622.38259 4,625.99805 A 1.000105,1.000105 0 0 0 4,626 c 0,5.51099 4.4890054,10 10,10 a 1.000105,1.000105 0 0 0 0.0078,0 c 1.001841,-0.007 1.985594,-0.21334 2.939454,-0.51562 0.973776,0.30467 1.996079,0.51179 3.048828,0.51562 a 1.000105,1.000105 0 0 0 0.0059,0 c 1.242664,-10e-4 2.436765,-0.28603 3.552735,-0.70312 1.104677,0.41401 2.257724,0.69689 3.439453,0.70312 a 1.000105,1.000105 0 0 0 0.0078,0 c 1.75993,-0.002 3.457384,-0.52701 4.974609,-1.40625 C 33.971855,635.48833 36.41217,635.99956 39,636 a 1.000105,1.000105 0 0 0 0.002,0 c 2.339304,-0.004 4.567289,-0.42629 6.458985,-1.16797 1.405656,0.72832 2.947408,1.16064 4.535156,1.16797 A 1.000105,1.000105 0 0 0 50,636 c 5.510996,0 10.000003,-4.48901 10,-10 3e-6,-5.51099 -4.489004,-10 -10,-10 a 1.000105,1.000105 0 0 0 -0.0039,0 c -1.144376,0.004 -2.252279,0.30687 -3.326172,0.69336 C 44.835527,615.02346 42.49543,614.00101 40,614 a 1.000105,1.000105 0 0 0 -0.002,0 c -0.06542,1.3e-4 -0.130118,0.004 -0.195313,0.006 l -1.675781,-6.25977 c -0.104853,-0.39075 -0.4348,-0.67983 -0.835937,-0.73242 -0.129969,-0.0171 -0.262031,-0.008 -0.388672,0.0254 l -2.898438,0.77735 -0.517578,-1.9336 c -0.143025,-0.53333 -0.691221,-0.84983 -1.224609,-0.70703 l -0.966797,0.25977 -4.691406,-17.51172 c 1.544667,-0.87728 2.375933,-2.72631 1.896484,-4.51563 l -0.519531,-1.93164 c -0.117617,-0.4371 -0.514153,-0.74071 -0.966797,-0.74023 z m -0.705078,2.22461 0.257812,0.96484 c 0.288952,1.07837 -0.335693,2.16027 -1.414062,2.44922 -1.078367,0.28895 -2.16027,-0.33569 -2.449219,-1.41406 l -0.257813,-0.96485 z m 5.503906,24.40625 0.777344,2.89648 c 0.146007,0.54491 -0.162125,1.0786 -0.707032,1.22461 -0.544902,0.14601 -1.078601,-0.16212 -1.224609,-0.70703 l -0.775391,-2.89648 c 0.64287,-0.17387 1.286298,-0.34566 1.929688,-0.51758 z m 4.640625,1.86328 1.347656,5.0293 c -2.128266,0.50332 -4.037013,1.71632 -5.449219,3.42968 -1.343856,-0.86412 -2.840684,-1.45741 -4.419921,-1.63086 l -1.136719,-4.24023 1.93164,-0.51758 c 0.426537,1.58787 2.085482,2.54474 3.673829,2.11914 1.588328,-0.42559 2.545607,-2.08348 2.121093,-3.67187 z M 16,613 c 2.771125,0 4.994621,2.22386 4.998047,4.99414 -0.0042,0.1535 -0.01296,0.30652 -0.03125,0.45898 a 1.000105,1.000105 0 0 0 1.556641,0.94532 C 23.842737,618.49571 25.401498,618.00812 27,618 c 1.799209,9.8e-4 3.543589,0.60888 4.955078,1.72461 a 1.000105,1.000105 0 0 0 1.447266,-0.22266 C 34.888737,617.31592 37.356586,616.00613 40,616 c 2.165246,8.8e-4 4.235726,0.87833 5.742188,2.43359 a 1.000105,1.000105 0 0 0 1.115234,0.22266 C 47.84968,618.22748 48.919101,618.00424 50,618 c 4.430112,0 8.000002,3.56988 8,8 2e-6,4.42878 -3.567833,7.99785 -7.996094,8 -1.400832,-0.006 -2.775497,-0.38148 -3.986328,-1.08594 a 1.000105,1.000105 0 0 0 -0.898437,-0.0527 C 43.471766,633.5748 41.273792,633.99614 39,634 c -2.524413,-4.3e-4 -4.945454,-0.51957 -6.630859,-1.36523 a 1.000105,1.000105 0 0 0 -0.996094,0.0586 c -1.29885,0.85054 -2.818597,1.30406 -4.371094,1.30664 -1.04765,-0.006 -2.084726,-0.21759 -3.050781,-0.62305 a 1.000105,1.000105 0 0 0 -0.777344,0.002 c -0.941954,0.39965 -2.045338,0.61912 -3.169922,0.62109 -0.953399,-0.003 -1.893185,-0.16335 -2.732422,-0.45898 a 1.000105,1.000105 0 0 0 -0.666015,0 C 15.767309,633.83765 14.885171,633.99327 13.996094,634 9.5684999,633.99785 6.0010737,630.42981 6,626.00195 V 626 c 0.00527,-3.03754 1.7254531,-5.80555 4.447266,-7.1543 a 1.000105,1.000105 0 0 0 0.55664,-0.88867 C 11.027224,615.20191 13.244783,613.00169 16,613 Z" id="rect68335" style="color:#001d4a;fill:#001d4a;fill-rule:evenodd;stroke-linecap:round;stroke-linejoin:round;stroke-miterlimit:4.1;-inkscape-stroke:none"/>

<path d="m 49,610 v 0" id="path69100" style="color:#001d4a;fill:none;fill-rule:evenodd;stroke-width:2;stroke-linecap:round;stroke-linejoin:round;stroke-miterlimit:4.1;-inkscape-stroke:none"/>

<path d="m 49,609 a 1,1 0 0 0 -1,1 1,1 0 0 0 1,1 1,1 0 0 0 1,-1 1,1 0 0 0 -1,-1 z" id="path69102" style="color:#001d4a;fill:#001d4a;fill-rule:evenodd;stroke-linecap:round;stroke-linejoin:round;stroke-miterlimit:4.1;-inkscape-stroke:none"/>

<path d="m 58,582 v 0" id="path69106" style="color:#001d4a;fill:none;fill-rule:evenodd;stroke-width:2;stroke-linecap:round;stroke-linejoin:round;stroke-miterlimit:4.1;-inkscape-stroke:none"/>

<path d="m 58,581 a 1,1 0 0 0 -1,1 1,1 0 0 0 1,1 1,1 0 0 0 1,-1 1,1 0 0 0 -1,-1 z" id="path69108" style="color:#001d4a;fill:#001d4a;fill-rule:evenodd;stroke-linecap:round;stroke-linejoin:round;stroke-miterlimit:4.1;-inkscape-stroke:none"/>

<path d="m 52.017578,595.65039 a 1,1 0 0 0 0,1.41406 l 1.414063,1.41407 a 1,1 0 0 0 1.416015,0 1,1 0 0 0 0,-1.41407 l -1.416015,-1.41406 a 1,1 0 0 0 -1.414063,0 z" id="path69120" style="color:#001d4a;fill:#001d4a;fill-rule:evenodd;stroke-linecap:round;stroke-linejoin:round;stroke-miterlimit:4.1;-inkscape-stroke:none"/>

<path d="m 47.775391,591.4082 a 1,1 0 0 0 0,1.41407 l 1.414062,1.41406 a 1,1 0 0 0 1.414063,0 1,1 0 0 0 0,-1.41406 l -1.414063,-1.41407 a 1,1 0 0 0 -1.414062,0 z" id="path69122" style="color:#001d4a;fill:#001d4a;fill-rule:evenodd;stroke-linecap:round;stroke-linejoin:round;stroke-miterlimit:4.1;-inkscape-stroke:none"/>

<path d="m 49.189453,595.65039 -1.414062,1.41406 a 1,1 0 0 0 0,1.41407 1,1 0 0 0 1.414062,0 l 1.414063,-1.41407 a 1,1 0 0 0 0,-1.41406 1,1 0 0 0 -1.414063,0 z" id="path69124" style="color:#001d4a;fill:#001d4a;fill-rule:evenodd;stroke-linecap:round;stroke-linejoin:round;stroke-miterlimit:4.1;-inkscape-stroke:none"/>

<path d="m 53.431641,591.4082 -1.414063,1.41407 a 1,1 0 0 0 0,1.41406 1,1 0 0 0 1.414063,0 l 1.416015,-1.41406 a 1,1 0 0 0 0,-1.41407 1,1 0 0 0 -1.416015,0 z" id="path69126" style="color:#001d4a;fill:#001d4a;fill-rule:evenodd;stroke-linecap:round;stroke-linejoin:round;stroke-miterlimit:4.1;-inkscape-stroke:none"/>

<path d="m 41,585 v 0" id="path69144" style="color:#001d4a;fill:none;fill-rule:evenodd;stroke-width:2;stroke-linecap:round;stroke-linejoin:round;stroke-miterlimit:4.1;-inkscape-stroke:none"/>

<path d="m 41,584 a 1,1 0 0 0 -1,1 1,1 0 0 0 1,1 1,1 0 0 0 1,-1 1,1 0 0 0 -1,-1 z" id="path69146" style="color:#001d4a;fill:#001d4a;fill-rule:evenodd;stroke-linecap:round;stroke-linejoin:round;stroke-miterlimit:4.1;-inkscape-stroke:none"/>

<path d="m 21,600 v 0" id="path69150" style="color:#001d4a;fill:none;fill-rule:evenodd;stroke-width:2;stroke-linecap:round;stroke-linejoin:round;stroke-miterlimit:4.1;-inkscape-stroke:none"/>

<path d="m 21,599 a 1,1 0 0 0 -1,1 1,1 0 0 0 1,1 1,1 0 0 0 1,-1 1,1 0 0 0 -1,-1 z" id="path69152" style="color:#001d4a;fill:#001d4a;fill-rule:evenodd;stroke-linecap:round;stroke-linejoin:round;stroke-miterlimit:4.1;-inkscape-stroke:none"/>

<path d="m 6,610 v 0" id="path69156" style="color:#001d4a;fill:none;fill-rule:evenodd;stroke-width:2;stroke-linecap:round;stroke-linejoin:round;stroke-miterlimit:4.1;-inkscape-stroke:none"/>

<path d="m 6,609 a 1,1 0 0 0 -1,1 1,1 0 0 0 1,1 1,1 0 0 0 1,-1 1,1 0 0 0 -1,-1 z" id="path69158" style="color:#001d4a;fill:#001d4a;fill-rule:evenodd;stroke-linecap:round;stroke-linejoin:round;stroke-miterlimit:4.1;-inkscape-stroke:none"/>

<path d="m 42.712891,620.85742 c -1.374254,0 -2.748281,0.52172 -3.791016,1.56445 -0.811196,0.81121 -1.313385,1.82642 -1.494141,2.88086 a 1,1 0 0 0 0.816407,1.15625 1,1 0 0 0 1.154296,-0.81836 c 0.113485,-0.66201 0.423592,-1.29077 0.9375,-1.80468 1.321172,-1.32117 3.432735,-1.32117 4.753907,0 a 1,1 0 0 0 1.414062,0 1,1 0 0 0 0,-1.41407 c -1.042735,-1.04273 -2.416762,-1.56445 -3.791015,-1.56445 z" id="path71736" style="color:#001d4a;fill:#001d4a;fill-rule:evenodd;stroke-linecap:round;stroke-linejoin:round;stroke-miterlimit:4.1;-inkscape-stroke:none"/>

<path d="m 16.296875,620.10937 c -1.065269,-0.0983 -2.1764,0.1217 -3.169922,0.69532 -2.554174,1.47464 -3.435579,4.77005 -1.960937,7.32422 a 1,1 0 0 0 1.365234,0.36523 1,1 0 0 0 0.365234,-1.36523 c -0.934202,-1.6181 -0.387624,-3.6576 1.230469,-4.5918 0.629393,-0.36338 1.317473,-0.49921 1.986328,-0.4375 a 1,1 0 0 0 1.087891,-0.9043 1,1 0 0 0 -0.904297,-1.08594 z" id="path71739" style="color:#001d4a;fill:#001d4a;fill-rule:evenodd;stroke-linecap:round;stroke-linejoin:round;stroke-miterlimit:4.1;-inkscape-stroke:none"/>

<path d="M 32.451172,625.05859 A 1,1 0 0 0 31.107422,625.5 c -1.748335,3.45776 -5.8125,2.94336 -5.8125,2.94336 a 1,1 0 0 0 -1.109375,0.875 1,1 0 0 0 0.875,1.11133 c 0,0 5.48507,0.61434 7.832031,-4.02735 a 1,1 0 0 0 -0.441406,-1.34375 z" id="path71741" style="color:#001d4a;fill:#001d4a;fill-rule:evenodd;stroke-linecap:round;stroke-linejoin:round;stroke-miterlimit:4.1;-inkscape-stroke:none"/>

<path d="m 20.47045,627.24556 v 0" id="path71743" style="color:#001d4a;fill:none;fill-rule:evenodd;stroke-width:2;stroke-linecap:round;stroke-linejoin:round;stroke-miterlimit:4.1;-inkscape-stroke:none"/>

<path d="m 20.47045,626.24556 a 1,1 0 0 0 -1,1 1,1 0 0 0 1,1 1,1 0 0 0 1,-1 1,1 0 0 0 -1,-1 z" id="path71745" style="color:#001d4a;fill:#001d4a;fill-rule:evenodd;stroke-linecap:round;stroke-linejoin:round;stroke-miterlimit:4.1;-inkscape-stroke:none"/>

<path d="m 53.06066,626.79188 v 0" id="path71749" style="color:#001d4a;fill:none;fill-rule:evenodd;stroke-width:2;stroke-linecap:round;stroke-linejoin:round;stroke-miterlimit:4.1;-inkscape-stroke:none"/>

<path d="m 53.06066,625.79188 a 1,1 0 0 0 -1,1 1,1 0 0 0 1,1 1,1 0 0 0 1,-1 1,1 0 0 0 -1,-1 z" id="path71751" style="color:#001d4a;fill:#001d4a;fill-rule:evenodd;stroke-linecap:round;stroke-linejoin:round;stroke-miterlimit:4.1;-inkscape-stroke:none"/>

<path d="m 13.734375,584.80859 a 1,1 0 0 0 -0.757812,0.10157 l -1.732422,1 a 1,1 0 0 0 -0.365235,1.36523 1,1 0 0 0 1.365235,0.36523 l 1.732422,-1 a 1,1 0 0 0 0.365234,-1.36523 1,1 0 0 0 -0.607422,-0.4668 z" id="path51475" style="color:#001d4a;fill:#001d4a;fill-rule:evenodd;stroke-linecap:round;stroke-linejoin:round;stroke-miterlimit:4.1;-inkscape-stroke:none"/>

<path d="m 7.78125,587.91016 -1.7324219,1 a 1,1 0 0 0 -0.3671875,1.36523 1,1 0 0 0 1.3671875,0.36523 l 1.7324219,-1 A 1,1 0 0 0 9.1464844,588.27539 1,1 0 0 0 7.78125,587.91016 Z" id="path51477" style="color:#001d4a;fill:#001d4a;fill-rule:evenodd;stroke-linecap:round;stroke-linejoin:round;stroke-miterlimit:4.1;-inkscape-stroke:none"/>

<path d="m 10.511719,588.64062 a 1,1 0 0 0 -0.365235,1.36719 l 1,1.73242 a 1,1 0 0 0 1.365235,0.36524 1,1 0 0 0 0.367187,-1.36524 l -1,-1.73242 a 1,1 0 0 0 -1.367187,-0.36719 z" id="path51479" style="color:#001d4a;fill:#001d4a;fill-rule:evenodd;stroke-linecap:round;stroke-linejoin:round;stroke-miterlimit:4.1;-inkscape-stroke:none"/>

<path d="m 8.2714844,583.3457 a 1,1 0 0 0 -0.7597657,0.0996 1,1 0 0 0 -0.3652343,1.36524 l 1,1.73242 a 1,1 0 0 0 1.3652344,0.36719 1,1 0 0 0 0.3671875,-1.36719 l -1,-1.73242 A 1,1 0 0 0 8.2714844,583.3457 Z" id="path51481" style="color:#001d4a;fill:#001d4a;fill-rule:evenodd;stroke-linecap:round;stroke-linejoin:round;stroke-miterlimit:4.1;-inkscape-stroke:none"/>

</g>

</svg>