<?xml version="1.0" encoding="iso-8859-1"?>
<!-- Uploaded to: SVG Repo, www.svgrepo.com, Generator: SVG Repo Mixer Tools -->
<svg fill="#001d4a" version="1.1" id="Layer_1" xmlns="http://www.w3.org/2000/svg" xmlns:xlink="http://www.w3.org/1999/xlink" 
	 viewBox="0 0 512 512" xml:space="preserve">
<g>
	<g>
		<path d="M48.894,25.131L2.486,80.821l46.407,55.689h202.96V25.131H48.894z M236.211,120.868H56.22L22.847,80.821L56.22,40.772
			h179.991V120.868z"/>
	</g>
</g>
<g>
	<g>
		<path d="M48.894,264.476L2.486,320.165l46.407,55.69h202.96V264.476H48.894z M236.211,360.213H56.22l-33.373-40.049l33.373-40.048
			h179.991V360.213z"/>
	</g>
</g>
<g>
	<g>
		<rect x="260.234" y="25.026" width="15.642" height="111.576"/>
	</g>
</g>
<g>
	<g>
		<path d="M463.106,144.803H260.147v111.379h202.96l46.407-55.689L463.106,144.803z M455.78,240.541H275.789v-80.096H455.78
			l33.373,40.049L455.78,240.541z"/>
	</g>
</g>
<g>
	<g>
		<rect x="235.207" width="41.711" height="15.642"/>
	</g>
</g>
<g>
	<g>
		<polygon points="298.819,496.358 298.819,488.016 283.178,488.016 283.178,496.358 275.878,496.358 275.878,263.821 
			260.237,263.821 260.237,496.358 251.895,496.358 251.895,383.739 236.253,383.739 236.253,496.358 226.868,496.358 
			226.868,488.016 211.227,488.016 211.227,496.358 196.628,496.358 196.628,512 315.504,512 315.504,496.358 		"/>
	</g>
</g>
<g>
	<g>
		<rect x="236.25" y="143.902" width="15.642" height="111.576"/>
	</g>
</g>
<g>
	<g>
		<path d="M100.426,49.065c-17.51,0-31.755,14.245-31.755,31.755c0,17.509,14.246,31.755,31.755,31.755
			c17.51,0,31.755-14.245,31.755-31.755S117.936,49.065,100.426,49.065z M100.426,96.935c-8.885,0-16.114-7.229-16.114-16.114
			s7.229-16.114,16.114-16.114c8.885,0,16.114,7.228,16.114,16.114S109.311,96.935,100.426,96.935z"/>
	</g>
</g>
<g>
	<g>
		<rect x="147.615" y="57.352" width="63.609" height="15.642"/>
	</g>
</g>
<g>
	<g>
		<rect x="147.615" y="89.678" width="16.684" height="15.642"/>
	</g>
</g>
<g>
	<g>
		<rect x="171.598" y="89.678" width="16.684" height="15.642"/>
	</g>
</g>
<g>
	<g>
		<rect x="196.625" y="89.678" width="14.599" height="15.642"/>
	</g>
</g>
<g>
	<g>
		<path d="M100.426,288.409c-17.51,0-31.755,14.245-31.755,31.755c0,17.51,14.246,31.755,31.755,31.755
			c17.51,0,31.755-14.245,31.755-31.755C132.182,302.655,117.936,288.409,100.426,288.409z M100.426,336.28
			c-8.885,0-16.114-7.228-16.114-16.114s7.229-16.114,16.114-16.114c8.885,0,16.114,7.229,16.114,16.114
			S109.311,336.28,100.426,336.28z"/>
	</g>
</g>
<g>
	<g>
		<rect x="147.615" y="297.189" width="63.609" height="15.642"/>
	</g>
</g>
<g>
	<g>
		<rect x="147.615" y="327.43" width="16.684" height="15.642"/>
	</g>
</g>
<g>
	<g>
		<rect x="171.598" y="327.43" width="16.684" height="15.642"/>
	</g>
</g>
<g>
	<g>
		<rect x="196.625" y="327.43" width="14.599" height="15.642"/>
	</g>
</g>
<g>
	<g>
		<path d="M411.574,168.738c-17.51,0-31.755,14.245-31.755,31.755c0,17.51,14.245,31.755,31.755,31.755s31.755-14.245,31.755-31.755
			C443.329,182.983,429.083,168.738,411.574,168.738z M411.574,216.606c-8.885,0-16.114-7.229-16.114-16.114
			s7.229-16.114,16.114-16.114s16.114,7.228,16.114,16.114S420.458,216.606,411.574,216.606z"/>
	</g>
</g>
<g>
	<g>
		<rect x="299.859" y="177.271" width="63.609" height="15.642"/>
	</g>
</g>
<g>
	<g>
		<rect x="347.826" y="209.597" width="15.642" height="15.642"/>
	</g>
</g>
<g>
	<g>
		<rect x="323.843" y="209.597" width="15.642" height="15.642"/>
	</g>
</g>
<g>
	<g>
		<rect x="299.859" y="209.597" width="15.642" height="15.642"/>
	</g>
</g>
</svg>