<?xml version="1.0" encoding="iso-8859-1"?>
<!-- Uploaded to: SVG Repo, www.svgrepo.com, Generator: SVG Repo Mixer Tools -->
<svg fill="#001d4a" height="80px" width="80px" version="1.1" id="Layer_1" xmlns="http://www.w3.org/2000/svg" xmlns:xlink="http://www.w3.org/1999/xlink" 
	 viewBox="0 0 512 512" xml:space="preserve">
<g>
	<g>
		<path d="M318.541,365.056l-73.754,19.746l-15.198-8.747v-47.701l15.206-8.755l73.754,19.746l6.647-24.823l-48.922-13.124
			l31.147-17.971l-12.877-22.246l-31.121,17.971l13.099-48.922l-24.823-6.656l-19.772,73.754l-15.198,8.772l-41.276-23.825v-17.553
			l53.999-53.999l-18.176-18.176l-35.823,35.823v-35.977h-25.728v35.977l-35.797-35.823l-18.176,18.176l53.973,53.999v17.553
			l-41.276,23.825l-15.198-8.772l-19.755-73.754l-24.849,6.647l13.124,48.922l-31.147-17.971l-12.851,22.246l31.147,17.971
			L0,314.522l6.647,24.823l73.754-19.746l15.198,8.747v47.701l-15.198,8.747L6.647,365.048L0,389.871l48.922,13.124l-31.147,17.971
			l12.851,22.272l31.147-17.971l-13.124,48.896l24.849,6.647l19.746-73.754l15.198-8.772l41.276,23.825v17.553L95.77,493.662
			l18.15,18.202l35.797-35.823V512h25.728v-35.977l35.823,35.849l18.15-18.202l-53.973-53.999v-17.553l41.276-23.825l15.198,8.772
			l19.772,73.754l24.823-6.647l-13.099-48.896l31.121,17.971l12.877-22.272l-31.147-17.971l48.922-13.124L318.541,365.056z
			 M121.327,343.228l15.573,8.977l-15.573,9.003V343.228z M149.726,392.448l-15.573-9.003l15.573-8.977V392.448z M149.726,329.924
			l-15.548-8.977l15.548-8.977V329.924z M175.454,311.979l15.548,8.977l-15.548,8.977V311.979z M175.454,392.448v-17.971
			l15.573,8.977L175.454,392.448z M203.878,361.199l-15.573-9.003l15.573-8.977V361.199z"/>
	</g>
</g>
<g>
	<g>
		<polygon points="505.6,132.25 447.804,147.703 409.421,125.551 447.804,103.398 505.6,118.878 512,94.976 478.123,85.871 
			498.799,73.95 486.4,52.523 465.775,64.478 474.829,30.601 450.927,24.201 435.422,81.971 397.047,104.124 397.047,59.802 
			437.547,19.302 439.373,17.502 421.854,0 397.047,24.798 397.047,0.947 372.301,0.947 372.301,24.798 347.503,0 329.975,17.502 
			372.301,59.802 372.301,104.124 333.901,81.971 318.421,24.201 294.502,30.601 303.573,64.452 282.948,52.523 270.549,73.95 
			291.226,85.871 257.348,94.976 263.748,118.878 321.553,103.398 359.927,125.551 321.553,147.703 263.748,132.25 257.348,156.151 
			291.226,165.248 270.549,177.152 282.948,198.596 303.573,186.675 294.502,220.527 318.421,226.927 333.901,169.148 
			372.301,147.004 372.301,191.326 331.827,231.825 330.001,233.626 347.503,251.153 372.301,226.347 372.301,250.172 
			397.047,250.172 397.047,226.321 421.854,251.153 439.347,233.626 397.047,191.326 397.047,147.004 435.422,169.148 
			450.253,224.478 450.927,226.927 474.829,220.527 465.775,186.675 486.4,198.596 498.799,177.152 478.123,165.248 512,156.151 		
			"/>
	</g>
</g>
<g>
	<g>
		<polygon points="171.426,49.485 158.626,27.315 111.309,54.63 111.309,0 85.709,0 85.709,54.63 38.4,27.315 25.6,49.485 
			72.909,76.8 25.6,104.115 38.4,126.285 85.709,98.97 85.709,153.6 111.309,153.6 111.309,98.97 158.626,126.285 171.426,104.115 
			124.109,76.8 		"/>
	</g>
</g>
<g>
	<g>
		<polygon points="485.478,395.085 472.678,372.915 447.539,387.43 447.539,358.4 421.939,358.4 421.939,387.43 396.8,372.915 
			384,395.085 409.139,409.6 384,424.115 396.8,446.285 421.939,431.77 421.939,460.8 447.539,460.8 447.539,431.77 
			472.678,446.285 485.478,424.115 460.339,409.6 		"/>
	</g>
</g>
</svg>