<?xml version="1.0" encoding="iso-8859-1"?>
<!-- Uploaded to: SVG Repo, www.svgrepo.com, Generator: SVG Repo Mixer Tools -->
<svg fill="#001d4a" height="80px" width="80px" version="1.1" id="Layer_1" xmlns="http://www.w3.org/2000/svg" xmlns:xlink="http://www.w3.org/1999/xlink" 
	 viewBox="0 0 512.427 512.427" xml:space="preserve">
<g transform="translate(1 1)">
	<g>
		<g>
			<path d="M374.68,246.893V127.427H135.747v119.467H374.68z M152.813,144.493h204.8v85.333H292.76l28.16-28.16
				c3.413-3.413,3.413-8.533,0-11.947c-3.413-3.413-8.533-3.413-11.947,0l-40.107,40.107H215.96l28.16-28.16
				c3.413-3.413,3.413-8.533,0-11.947s-8.533-3.413-11.947,0l-40.107,40.107h-39.253V144.493z"/>
			<path d="M152.813,306.627H84.547c-5.12,0-8.533,3.413-8.533,8.533v42.667c0,5.12,3.413,8.533,8.533,8.533h68.267
				c5.12,0,8.533-3.413,8.533-8.533V315.16C161.347,310.04,157.933,306.627,152.813,306.627z M144.28,349.293h-51.2v-25.6h51.2
				V349.293z"/>
			<path d="M425.88,306.627h-68.267c-5.12,0-8.533,3.413-8.533,8.533v42.667c0,5.12,3.413,8.533,8.533,8.533h68.267
				c5.12,0,8.533-3.413,8.533-8.533V315.16C434.413,310.04,431,306.627,425.88,306.627z M417.347,349.293h-51.2v-25.6h51.2V349.293z
				"/>
			<path d="M221.08,323.693h68.267c5.12,0,8.533-3.413,8.533-8.533s-3.413-8.533-8.533-8.533H221.08
				c-5.12,0-8.533,3.413-8.533,8.533S215.96,323.693,221.08,323.693z"/>
			<path d="M314.947,340.76H195.48c-5.12,0-8.533,3.413-8.533,8.533s3.413,8.533,8.533,8.533h119.467
				c5.12,0,8.533-3.413,8.533-8.533S320.067,340.76,314.947,340.76z"/>
			<path d="M494.147,447.427c0-21.333,5.973-40.107,14.507-49.493c2.56-2.56,3.413-5.973,1.707-9.387
				c-0.853-3.413-4.267-5.12-7.68-5.12h-25.6V340.76c0-34.656-26.178-63.475-59.733-67.71v-77.356h17.92v18.773
				c0,8.533,6.827,15.36,15.36,15.36h19.627c8.533,0,15.36-6.827,15.36-15.36v-53.76c0-8.533-6.827-15.36-15.36-15.36h-19.627
				c-8.533,0-15.36,6.827-15.36,15.36v17.92h-17.92V93.293c0-5.12-3.413-8.533-8.533-8.533h-17.067v-25.6
				c0-5.12-3.413-8.533-8.533-8.533V7.96c0-2.56-0.853-6.827-3.413-7.68s-5.973-1.707-8.533,0l-34.133,17.067
				c-3.413,1.707-5.12,4.267-5.12,7.68v25.6c-5.12,0-8.533,3.413-8.533,8.533v25.6H186.947v-25.6c0-5.12-3.413-8.533-8.533-8.533
				v-25.6c0-3.413-1.707-5.973-4.267-7.68L140.013,0.28c-2.56-1.707-5.973-1.707-8.533,0s-4.267,5.12-4.267,7.68v42.667
				c-5.12,0-8.533,3.413-8.533,8.533v25.6h-17.067c-5.12,0-8.533,3.413-8.533,8.533v85.333H75.16v-17.92
				c0-8.533-6.827-15.36-15.36-15.36H40.173c-8.533,0-15.36,6.827-15.36,15.36v53.76c0,8.533,6.827,15.36,15.36,15.36h20.48
				c8.533,0,15.36-6.827,14.507-15.36v-18.773h17.92v77.356c-33.555,4.235-59.733,33.054-59.733,67.71v42.667h-25.6
				c-3.413,0-5.973,1.707-7.68,5.12s-0.853,6.827,1.707,9.387c8.533,9.387,14.507,28.16,14.507,49.493
				c0,21.333-5.973,40.107-14.507,49.493c-2.56,2.56-2.56,5.973-1.707,9.387c0.853,3.413,4.267,5.12,7.68,5.12H502.68
				c3.413,0,6.827-1.707,7.68-5.12c1.707-3.413,0.853-6.827-1.707-9.387C500.12,487.533,494.147,468.76,494.147,447.427z
				 M451.48,161.56h17.067v51.2H451.48V161.56z M58.947,212.76H41.88v-51.2h17.067V212.76z M349.08,30.147l17.067-8.533v29.013
				H349.08V30.147z M340.547,67.693h34.133V84.76h-34.133V67.693z M144.28,21.613l17.067,8.533v20.48H144.28V21.613z
				 M135.747,67.693h34.133V84.76h-34.133V67.693z M110.147,101.827h17.067h51.2h153.6h51.2h17.067v170.667H110.147V101.827z
				 M50.413,340.76c0-28.16,23.04-51.2,51.2-51.2h307.2c28.16,0,51.2,23.04,51.2,51.2v42.667h-409.6V340.76z M33.347,400.493H477.08
				h9.387c-5.495,11.775-8.816,26.443-9.314,42.667H33.274c-0.498-16.224-3.819-30.892-9.314-42.667H33.347z M23.96,494.36
				c4.514-9.673,7.563-21.298,8.785-34.133h444.937c1.222,12.835,4.271,24.46,8.785,34.133H23.96z"/>
		</g>
	</g>
</g>
</svg>